<svg xmlns="http://www.w3.org/2000/svg" xmlns:xlink="http://www.w3.org/1999/xlink" viewBox="0 0 828 185.27"><defs><style>.cls-1{isolation:isolate;}.cls-2{fill:#fff;}.cls-3{fill:#d2691e;}.cls-4{fill:url(#linear-gradient);}.cls-5{fill:#dd8f57;}.cls-6{fill:url(#radial-gradient);}.cls-7{fill:#231f20;}.cls-24,.cls-27,.cls-7{mix-blend-mode:multiply;opacity:0.9;}.cls-8{fill:url(#linear-gradient-2);}.cls-9{fill:url(#linear-gradient-3);}.cls-10{fill:url(#radial-gradient-2);}.cls-11{fill:url(#linear-gradient-4);}.cls-12{fill:url(#linear-gradient-5);}.cls-13{fill:#6d8b66;}.cls-14{fill:url(#linear-gradient-6);}.cls-15{fill:url(#linear-gradient-9);}.cls-16{fill:url(#linear-gradient-10);}.cls-17{fill:url(#linear-gradient-11);}.cls-18{fill:url(#linear-gradient-12);}.cls-19{fill:url(#linear-gradient-13);}.cls-20{fill:url(#radial-gradient-5);}.cls-21{fill:#1b7878;}.cls-22{fill:url(#linear-gradient-14);}.cls-23{fill:url(#radial-gradient-6);}.cls-24{fill:url(#radial-gradient-7);}.cls-25{fill:url(#linear-gradient-15);}.cls-26{fill:url(#radial-gradient-8);}.cls-27{fill:url(#radial-gradient-9);}</style><linearGradient id="linear-gradient" x1="393.95" y1="99.28" x2="411.41" y2="42.92" gradientUnits="userSpaceOnUse"><stop offset="0" stop-color="#ffe4d0"/><stop offset="1" stop-color="#c50"/></linearGradient><radialGradient id="radial-gradient" cx="446.37" cy="34.01" r="15.94" gradientTransform="translate(348.69 -400.92) rotate(74.31)" gradientUnits="userSpaceOnUse"><stop offset="0" stop-color="#231f20"/><stop offset="1" stop-color="#750000"/></radialGradient><linearGradient id="linear-gradient-2" x1="413.49" y1="32.49" x2="414.31" y2="29.82" xlink:href="#linear-gradient"/><linearGradient id="linear-gradient-3" x1="398.31" y1="28.5" x2="399.13" y2="25.84" xlink:href="#linear-gradient"/><radialGradient id="radial-gradient-2" cx="384.59" cy="9.04" r="11.28" gradientTransform="translate(307.16 -367.76) rotate(76.32)" gradientUnits="userSpaceOnUse"><stop offset="0" stop-color="#231f20"/><stop offset="0.6" stop-color="#750000"/></radialGradient><linearGradient id="linear-gradient-4" x1="404.02" y1="4.45" x2="394.72" y2="32.64" gradientUnits="userSpaceOnUse"><stop offset="0" stop-color="#04bf9d"/><stop offset="1" stop-color="#026969"/></linearGradient><linearGradient id="linear-gradient-5" x1="393.95" y1="99.28" x2="411.41" y2="42.92" xlink:href="#linear-gradient-4"/><linearGradient id="linear-gradient-6" x1="443.77" y1="118.67" x2="413.98" y2="103.95" gradientUnits="userSpaceOnUse"><stop offset="0" stop-color="#40ba8d"/><stop offset="1" stop-color="#026969"/></linearGradient><linearGradient id="linear-gradient-9" x1="466.78" y1="98.72" x2="392.07" y2="75.73" gradientUnits="userSpaceOnUse"><stop offset="0" stop-color="#690202"/><stop offset="1" stop-color="#a60303"/></linearGradient><linearGradient id="linear-gradient-10" x1="419.03" y1="9.49" x2="392.08" y2="78.96" xlink:href="#linear-gradient-9"/><linearGradient id="linear-gradient-11" x1="388.05" y1="149.11" x2="387.45" y2="77.56" xlink:href="#linear-gradient-9"/><linearGradient id="linear-gradient-12" x1="348" y1="37.02" x2="393.66" y2="75.07" xlink:href="#linear-gradient-9"/><linearGradient id="linear-gradient-13" x1="313.14" y1="102.18" x2="390.33" y2="77.98" xlink:href="#linear-gradient-9"/><radialGradient id="radial-gradient-5" cx="450.1" cy="-168.68" r="11.62" gradientTransform="translate(-237.62 323.55) scale(1.39 1.46)" gradientUnits="userSpaceOnUse"><stop offset="0" stop-color="#690202"/><stop offset="0.42" stop-color="#6b0302"/><stop offset="0.58" stop-color="#720802"/><stop offset="0.7" stop-color="#7e1102"/><stop offset="0.79" stop-color="#8f1d03"/><stop offset="0.88" stop-color="#a62d03"/><stop offset="0.95" stop-color="#c14104"/><stop offset="1" stop-color="#d95204"/></radialGradient><linearGradient id="linear-gradient-14" x1="426.84" y1="30.23" x2="448.43" y2="30.23" xlink:href="#linear-gradient-4"/><radialGradient id="radial-gradient-6" cx="446.37" cy="34.01" r="17.86" gradientTransform="translate(348.69 -400.92) rotate(74.31)" gradientUnits="userSpaceOnUse"><stop offset="0" stop-color="#fff6f0"/><stop offset="1" stop-color="#0464d9"/></radialGradient><radialGradient id="radial-gradient-7" cx="439.4" cy="24.29" r="7.45" gradientUnits="userSpaceOnUse"><stop offset="0.14" stop-color="#fff6f0"/><stop offset="1" stop-color="#101126"/></radialGradient><linearGradient id="linear-gradient-15" x1="389.88" y1="4.56" x2="405.48" y2="4.56" xlink:href="#linear-gradient-4"/><radialGradient id="radial-gradient-8" cx="384.59" cy="9.04" r="11.28" gradientTransform="matrix(-0.09, 1, -1.42, -0.12, 435.16, -374)" gradientUnits="userSpaceOnUse"><stop offset="0.14" stop-color="#fff6f0"/><stop offset="0.85" stop-color="#0464d9"/></radialGradient><radialGradient id="radial-gradient-9" cx="392.15" cy="5.04" r="7.39" xlink:href="#radial-gradient-7"/></defs><g class="cls-1"><g id="Layer_2" data-name="Layer 2"><g id="menu_bg_copy" data-name="menu bg copy"><path class="cls-2" d="M828,82.27v103H0v-103a35,35,0,0,1,35-35H294.6a23.46,23.46,0,0,1,20.84,16.94q.26,1.25.57,2.46A78.8,78.8,0,0,0,469.15,66c.08-.38.16-.76.26-1.13a23.51,23.51,0,0,1,22.76-17.63H793A35,35,0,0,1,828,82.27Z"/></g><g id="icons_bg" data-name="icons bg"><path class="cls-3" d="M440.3,61.68s2.54-1.38,4.1-6.38a88.94,88.94,0,0,0,2.38-9.53s1.5-4.78,1.41-7.77a52.83,52.83,0,0,0-.53-5.79s-11.15-15.92-17-18.15l-5.89-2.23a79.92,79.92,0,0,0-10.56-3.34c-7.81-2.1-11.51-2.23-11.51-2.23s-15.11-4.1-21.4-2.94-3.34.57-6.15,1.6C373.05,5.68,371,4.56,369,6c-2.18,1.61-3.84,3.09-5.21,3.27a51.77,51.77,0,0,1-10.39.07c-2.76-.18-8.79-2.45-9.27,4.15-.2,2.72,1.35,8.68,6.24,8,1.41-.19,2.9-1.87,5.88-2.09s6.78,1.6,6.78,1.6,0,3.12-4.06,4.73-6,.36-7.62,2.29c-.32.37-2.66,4.39-1.45,7.35.33.83,1.72,4.4,7.33,2.22s5.13-5.17,8.34-7.18,10.52-3.88,10.52-3.88a36.85,36.85,0,0,0-4.32,7.27c-1.86,4.61-1.3,8.2,2,9.32a5.72,5.72,0,0,0,6.29-2.46c1.29-2.25-.15-3.21.22-5.26a12.92,12.92,0,0,1,1.34-3.74,271.89,271.89,0,0,1,12.58,26.83c4.64,12.15,13.13,35.33,13.13,35.33l27-13.79s3-9.17,4.54-12.93S440.3,61.68,440.3,61.68Z"/><path class="cls-4" d="M403.59,41.06A142.23,142.23,0,0,1,418,45.59c7.63,2.88,12.05,6.3,15.92,6.08a23.8,23.8,0,0,0,8-2.32l-30.21,55.14s-14.23-40-16.45-45.57c-2.11-5.24-11.74-25.22-12.73-27.27,0,0,0-.06,0,0a23.47,23.47,0,0,0,10.13,5.68A86.85,86.85,0,0,1,403.59,41.06Z"/><path class="cls-5" d="M381.82,25.61s.86,4.79,8.06,7.15S399,37,401.83,38s10.72,3.45,15.8,4.93,9.89,3.46,13.71,4.57c7.23,2.1,8.2,0,10.62,0s-3.55,6-8.63,5-20-7-26.64-9.06c-5.42-1.65-24.69-9.61-24.87-10.64S381.82,25.61,381.82,25.61Z"/><path class="cls-3" d="M427.77,19s9.46-4.86,14.94-1.21c8,5.35,5.26,14.31,5.26,14.31s-6,12.8-11.15,12-10-7-10-7"/><ellipse class="cls-6" cx="438.86" cy="29.6" rx="10.68" ry="8.59" transform="matrix(0.27, -0.96, 0.96, 0.27, 291.7, 444.11)"/><path class="cls-7" d="M442.8,24s4,4.06,2,8a12.55,12.55,0,0,1-5.13,5.5s-2.05-2.56-.58-7.6S442.8,24,442.8,24Z"/><path class="cls-3" d="M405.48,9.11s-7.4-7.62-10.12-8.82-5.48,1.78-5.48,1.78l1.42,1.76,4.43,2.45Z"/><ellipse class="cls-8" cx="413.92" cy="31.08" rx="1.06" ry="1.49"/><ellipse class="cls-9" cx="398.74" cy="27.1" rx="1.06" ry="1.49"/><ellipse class="cls-10" cx="387.57" cy="11.56" rx="9.77" ry="6.01" transform="translate(284.7 385.41) rotate(-76.32)"/><path class="cls-7" d="M388.14,3.9s-.71,5.75-2.1,7.62-2.45,6.2-2.45,6.2-2.58-2.5-1.51-8.38S388.14,3.9,388.14,3.9Z"/><path class="cls-11" d="M440.3,61.68s2.54-1.38,4.1-6.38a88.94,88.94,0,0,0,2.38-9.53s1.5-4.78,1.41-7.77a52.83,52.83,0,0,0-.53-5.79s-11.15-15.92-17-18.15l-5.89-2.23a79.92,79.92,0,0,0-10.56-3.34c-7.81-2.1-11.51-2.23-11.51-2.23s-15.11-4.1-21.4-2.94-3.34.57-6.15,1.6C373.05,5.68,371,4.56,369,6c-2.18,1.61-3.84,3.09-5.21,3.27a51.77,51.77,0,0,1-10.39.07c-2.76-.18-8.79-2.45-9.27,4.15-.2,2.72,1.35,8.68,6.24,8,1.41-.19,2.9-1.87,5.88-2.09s6.78,1.6,6.78,1.6,0,3.12-4.06,4.73-6,.36-7.62,2.29c-.32.37-2.66,4.39-1.45,7.35.33.83,1.72,4.4,7.33,2.22s5.13-5.17,8.34-7.18,10.52-3.88,10.52-3.88a36.85,36.85,0,0,0-4.32,7.27c-1.86,4.61-1.3,8.2,2,9.32a5.72,5.72,0,0,0,6.29-2.46c1.29-2.25-.15-3.21.22-5.26a12.92,12.92,0,0,1,1.34-3.74,271.89,271.89,0,0,1,12.58,26.83c4.64,12.15,13.13,35.33,13.13,35.33l27-13.79s3-9.17,4.54-12.93S440.3,61.68,440.3,61.68Z"/><path class="cls-12" d="M403.59,41.06A142.23,142.23,0,0,1,418,45.59c7.63,2.88,12.05,6.3,15.92,6.08a23.8,23.8,0,0,0,8-2.32l-30.21,55.14s-14.23-40-16.45-45.57c-2.11-5.24-11.74-25.22-12.73-27.27,0,0,0-.06,0,0a23.47,23.47,0,0,0,10.13,5.68A86.85,86.85,0,0,1,403.59,41.06Z"/><path class="cls-13" d="M381.82,25.61s.86,4.79,8.06,7.15S399,37,401.83,38s10.72,3.45,15.8,4.93,9.89,3.46,13.71,4.57c7.23,2.1,8.2,0,10.62,0s-3.55,6-8.63,5-20-7-26.64-9.06c-5.42-1.65-24.69-9.61-24.87-10.64S381.82,25.61,381.82,25.61Z"/><path class="cls-3" d="M427.77,19s9.46-4.86,14.94-1.21c8,5.35,5.26,14.31,5.26,14.31s-6,12.8-11.15,12-10-7-10-7"/><ellipse class="cls-6" cx="438.86" cy="29.6" rx="10.68" ry="8.59" transform="matrix(0.27, -0.96, 0.96, 0.27, 291.7, 444.11)"/><path class="cls-7" d="M442.8,24s4,4.06,2,8a12.55,12.55,0,0,1-5.13,5.5s-2.05-2.56-.58-7.6S442.8,24,442.8,24Z"/><path class="cls-3" d="M405.48,9.11s-7.4-7.62-10.12-8.82-5.48,1.78-5.48,1.78l1.42,1.76,4.43,2.45Z"/><path class="cls-14" d="M421.83,101.86a79.33,79.33,0,0,1,12.49,2,80.14,80.14,0,0,0,8.62,2l.66,15.84s1.1,1.44-12.65,2c-1.57.07-5-1.34-5-1.34L412.4,107.22Z"/><ellipse class="cls-8" cx="413.92" cy="31.08" rx="1.06" ry="1.49"/><ellipse class="cls-9" cx="398.74" cy="27.1" rx="1.06" ry="1.49"/><ellipse class="cls-10" cx="387.57" cy="11.56" rx="9.77" ry="6.01" transform="translate(284.7 385.41) rotate(-76.32)"/><path class="cls-7" d="M388.14,3.9s-.71,5.75-2.1,7.62-2.45,6.2-2.45,6.2-2.58-2.5-1.51-8.38S388.14,3.9,388.14,3.9Z"/><path class="cls-15" d="M394,71.94s21.47-10.89,36.9-3.8,43.91,25.31,41,30.38-37.15,10.38-51.14,5.82S390.89,80.8,390.89,80.8Z"/><path class="cls-16" d="M387.76,71.68s-4.59-21.61,1.93-32.83S408.26,3.33,416.22,7.38s14.23,28.36,5.55,40.25S399.82,77,399.82,77Z"/><path class="cls-17" d="M395,79.51s11.69,18.43,9.47,31.35S399.3,151,390.49,150.25s-23-21.07-19-35.45,10.4-35.69,10.4-35.69Z"/><path class="cls-18" d="M386.19,79.53s-30-10.88-33.89-18.48-13-19-9.65-23.54,18.37-9.06,31.36,0S390.89,69.4,390.89,69.4Z"/><path class="cls-19" d="M387.76,81.3s-16.65,19.41-33.05,24.77-40.29,6.54-42.22,0S313.8,81.62,341.43,77s46.33-2.28,46.33-2.28Z"/><ellipse class="cls-20" cx="389.27" cy="77" rx="16.19" ry="16.99"/><path class="cls-21" d="M381.27,3.14c-6.28,1.16-3.34.58-6.15,1.61-2.07.76-4.1-.37-6.11,1.11-2.18,1.61-3.84,3.09-5.21,3.28a52.52,52.52,0,0,1-10.39.07c-2.76-.18-8.79-2.46-9.27,4.14-.2,2.72,1.35,8.69,6.24,8,1.41-.19,2.9-1.87,5.88-2.1S363,20.89,363,20.89,363,24,359,25.61s-6,.37-7.62,2.3c-.32.37-2.66,4.39-1.45,7.35.33.83,1.72,4.4,7.33,2.21s5.13-5.17,8.34-7.17,10.52-3.88,10.52-3.88a36.51,36.51,0,0,0-4.32,7.27c-1.86,4.6-1.3,8.2,2,9.31a5.7,5.7,0,0,0,6.29-2.45c1.29-2.25-.15-3.21.22-5.26a12.91,12.91,0,0,1,1.34-3.75S387.56,2,381.27,3.14Z"/><path class="cls-21" d="M412.47,86.29s-5.53-6.11-6.1-8.25-2.52-7.82-7.11-6.12-4,4.47-3.86,5.76.93,3.52,4,5.17c5.13,2.75,5.48,6.07,5.48,6.07s-11.86-3-14.71-5-11.86-9.13-15.56-3.74.27,7.27,1.52,8.38,7.24,1.23,9.63,2,7.67,3.32,7.67,3.32-1.34.87-1.34,1.9a8.7,8.7,0,0,0,.31,2.09,11.31,11.31,0,0,1-5.88,1.52c-3.75,0-9.53-.72-10.88,4.46-.49,1.87.44,6.69,4.14,7.13,4.52.55,6.6-.89,8.34-2.54s1.65-2.79,5.35-2.31,10.92,3.56,18,2.76,18.16-4.2,21.36-7.54,20-13.78,14.89-24.52c-2.19-4.55-3.39-3.08-3.39-4.73,0,0-4-10.25-6.17-11.21s-3.87-4-8.4-1.32-5.19,9.41-3,11.84A22.69,22.69,0,0,1,430.44,78s-4.51,3.8-6.84,6-5,8.4-5,8.4a4.69,4.69,0,0,0-3.21-1.77C413.43,90.48,412.47,86.29,412.47,86.29Z"/><path class="cls-22" d="M427.77,19s9.46-4.86,14.94-1.21c8,5.35,5.26,14.31,5.26,14.31s-6,12.8-11.15,12-10-7-10-7"/><ellipse class="cls-23" cx="438.86" cy="29.6" rx="10.68" ry="8.59" transform="matrix(0.27, -0.96, 0.96, 0.27, 291.7, 444.11)"/><path class="cls-24" d="M442.8,24s4.78,1.61,3.42,7.6a7.67,7.67,0,0,1-6.54,5.93s-4.33-2.9-2.86-7.93A7.63,7.63,0,0,1,442.8,24Z"/><path class="cls-25" d="M405.48,9.11s-7.4-7.62-10.12-8.82-5.48,1.78-5.48,1.78l1.42,1.76,4.43,2.45Z"/><ellipse class="cls-26" cx="387.57" cy="11.56" rx="9.77" ry="6.01" transform="translate(284.7 385.41) rotate(-76.32)"/><path class="cls-27" d="M388.14,3.9s2.31,4,1.13,8.09a9,9,0,0,1-5.68,5.73s-3.52-2.19-2.45-8.08S388.14,3.9,388.14,3.9Z"/></g></g></g></svg>