<svg xmlns="http://www.w3.org/2000/svg" xmlns:xlink="http://www.w3.org/1999/xlink" viewBox="0 0 160.11 150.27"><defs><style>.cls-1{isolation:isolate;}.cls-2{fill:#d2691e;}.cls-3{fill:url(#linear-gradient);}.cls-4{fill:#dd8f57;}.cls-5{fill:url(#radial-gradient);}.cls-6{fill:#231f20;}.cls-23,.cls-26,.cls-6{mix-blend-mode:multiply;opacity:0.9;}.cls-7{fill:url(#linear-gradient-2);}.cls-8{fill:url(#linear-gradient-3);}.cls-9{fill:url(#radial-gradient-2);}.cls-10{fill:url(#linear-gradient-4);}.cls-11{fill:url(#linear-gradient-5);}.cls-12{fill:#6d8b66;}.cls-13{fill:url(#linear-gradient-6);}.cls-14{fill:url(#linear-gradient-9);}.cls-15{fill:url(#linear-gradient-10);}.cls-16{fill:url(#linear-gradient-11);}.cls-17{fill:url(#linear-gradient-12);}.cls-18{fill:url(#linear-gradient-13);}.cls-19{fill:url(#radial-gradient-5);}.cls-20{fill:#1b7878;}.cls-21{fill:url(#linear-gradient-14);}.cls-22{fill:url(#radial-gradient-6);}.cls-23{fill:url(#radial-gradient-7);}.cls-24{fill:url(#linear-gradient-15);}.cls-25{fill:url(#radial-gradient-8);}.cls-26{fill:url(#radial-gradient-9);}</style><linearGradient id="linear-gradient" x1="81.91" y1="99.28" x2="99.37" y2="42.92" gradientUnits="userSpaceOnUse"><stop offset="0" stop-color="#ffe4d0"/><stop offset="1" stop-color="#c50"/></linearGradient><radialGradient id="radial-gradient" cx="134.33" cy="34.01" r="15.94" gradientTransform="translate(121.03 -100.51) rotate(74.31)" gradientUnits="userSpaceOnUse"><stop offset="0" stop-color="#231f20"/><stop offset="1" stop-color="#750000"/></radialGradient><linearGradient id="linear-gradient-2" x1="101.45" y1="32.49" x2="102.28" y2="29.82" xlink:href="#linear-gradient"/><linearGradient id="linear-gradient-3" x1="86.27" y1="28.5" x2="87.09" y2="25.84" xlink:href="#linear-gradient"/><radialGradient id="radial-gradient-2" cx="72.55" cy="9.04" r="11.28" gradientTransform="translate(68.9 -64.56) rotate(76.32)" gradientUnits="userSpaceOnUse"><stop offset="0" stop-color="#231f20"/><stop offset="0.6" stop-color="#750000"/></radialGradient><linearGradient id="linear-gradient-4" x1="91.98" y1="4.45" x2="82.68" y2="32.64" gradientUnits="userSpaceOnUse"><stop offset="0" stop-color="#04bf9d"/><stop offset="1" stop-color="#026969"/></linearGradient><linearGradient id="linear-gradient-5" x1="81.91" y1="99.28" x2="99.37" y2="42.92" xlink:href="#linear-gradient-4"/><linearGradient id="linear-gradient-6" x1="131.73" y1="118.67" x2="101.94" y2="103.95" gradientUnits="userSpaceOnUse"><stop offset="0" stop-color="#40ba8d"/><stop offset="1" stop-color="#026969"/></linearGradient><linearGradient id="linear-gradient-9" x1="154.74" y1="98.72" x2="80.03" y2="75.73" gradientUnits="userSpaceOnUse"><stop offset="0" stop-color="#690202"/><stop offset="1" stop-color="#a60303"/></linearGradient><linearGradient id="linear-gradient-10" x1="106.99" y1="9.49" x2="80.04" y2="78.96" xlink:href="#linear-gradient-9"/><linearGradient id="linear-gradient-11" x1="76.01" y1="149.11" x2="75.41" y2="77.56" xlink:href="#linear-gradient-9"/><linearGradient id="linear-gradient-12" x1="35.96" y1="37.02" x2="81.62" y2="75.07" xlink:href="#linear-gradient-9"/><linearGradient id="linear-gradient-13" x1="1.1" y1="102.18" x2="78.3" y2="77.98" xlink:href="#linear-gradient-9"/><radialGradient id="radial-gradient-5" cx="87.88" cy="306.74" r="11.62" gradientTransform="translate(-45.17 -371.34) scale(1.39 1.46)" gradientUnits="userSpaceOnUse"><stop offset="0" stop-color="#690202"/><stop offset="0.42" stop-color="#6b0302"/><stop offset="0.58" stop-color="#720802"/><stop offset="0.7" stop-color="#7e1102"/><stop offset="0.79" stop-color="#8f1d03"/><stop offset="0.88" stop-color="#a62d03"/><stop offset="0.95" stop-color="#c14104"/><stop offset="1" stop-color="#d95204"/></radialGradient><linearGradient id="linear-gradient-14" x1="114.8" y1="30.23" x2="136.39" y2="30.23" xlink:href="#linear-gradient-4"/><radialGradient id="radial-gradient-6" cx="134.33" cy="34.01" r="17.86" gradientTransform="translate(121.03 -100.51) rotate(74.31)" gradientUnits="userSpaceOnUse"><stop offset="0" stop-color="#fff6f0"/><stop offset="1" stop-color="#0464d9"/></radialGradient><radialGradient id="radial-gradient-7" cx="127.36" cy="24.29" r="7.45" gradientUnits="userSpaceOnUse"><stop offset="0.14" stop-color="#fff6f0"/><stop offset="1" stop-color="#101126"/></radialGradient><linearGradient id="linear-gradient-15" x1="77.84" y1="4.56" x2="93.44" y2="4.56" xlink:href="#linear-gradient-4"/><radialGradient id="radial-gradient-8" cx="72.55" cy="9.04" r="11.28" gradientTransform="matrix(-0.09, 1, -1.42, -0.12, 96.37, -63.11)" gradientUnits="userSpaceOnUse"><stop offset="0.14" stop-color="#fff6f0"/><stop offset="0.85" stop-color="#0464d9"/></radialGradient><radialGradient id="radial-gradient-9" cx="80.11" cy="5.04" r="7.39" xlink:href="#radial-gradient-7"/></defs><g class="cls-1"><g id="Layer_2" data-name="Layer 2"><g id="logo"><path class="cls-2" d="M128.26,61.68s2.54-1.38,4.1-6.38a86.18,86.18,0,0,0,2.38-9.53s1.5-4.78,1.41-7.77a50.1,50.1,0,0,0-.53-5.79s-11.15-15.92-17-18.15l-5.89-2.23a79.92,79.92,0,0,0-10.56-3.34c-7.8-2.1-11.51-2.23-11.51-2.23s-15.11-4.1-21.4-2.94-3.34.57-6.15,1.6C61,5.68,59,4.56,57,6c-2.18,1.61-3.84,3.09-5.21,3.27a51.77,51.77,0,0,1-10.39.07c-2.76-.18-8.79-2.45-9.27,4.15-.2,2.72,1.35,8.68,6.24,8,1.41-.19,2.9-1.87,5.88-2.09S51,21.06,51,21.06s0,3.12-4.06,4.73-5.95.36-7.62,2.29c-.32.37-2.65,4.39-1.45,7.35.33.83,1.72,4.4,7.33,2.22s5.13-5.17,8.34-7.18,10.52-3.88,10.52-3.88a37.39,37.39,0,0,0-4.32,7.27c-1.86,4.61-1.29,8.2,2,9.32A5.72,5.72,0,0,0,68,40.72c1.29-2.25-.15-3.21.22-5.26a12.92,12.92,0,0,1,1.34-3.74A271.89,271.89,0,0,1,82.17,58.55C86.81,70.7,95.3,93.88,95.3,93.88l27-13.79s3-9.17,4.54-12.93S128.26,61.68,128.26,61.68Z"/><path class="cls-3" d="M91.55,41.06a142.23,142.23,0,0,1,14.36,4.53c7.63,2.88,12,6.3,15.92,6.08a23.8,23.8,0,0,0,8-2.32L99.61,104.49s-14.23-40-16.45-45.57C81.05,53.68,71.42,33.7,70.43,31.65c0,0,0-.06,0,0a23.55,23.55,0,0,0,10.13,5.68A86.85,86.85,0,0,1,91.55,41.06Z"/><path class="cls-4" d="M69.78,25.61s.86,4.79,8.06,7.15S86.92,37,89.79,38s10.72,3.45,15.81,4.93,9.88,3.46,13.7,4.57c7.23,2.1,8.2,0,10.62,0s-3.55,6-8.63,5-20-7-26.63-9.06C89.23,41.75,70,33.79,69.78,32.76S69.78,25.61,69.78,25.61Z"/><path class="cls-2" d="M115.74,19s9.45-4.86,14.93-1.21c8,5.35,5.26,14.31,5.26,14.31s-6,12.8-11.14,12-10-7-10-7"/><ellipse class="cls-5" cx="126.82" cy="29.6" rx="10.68" ry="8.59" transform="translate(64.04 143.69) rotate(-74.31)"/><path class="cls-6" d="M130.76,24s4,4.06,2,8a12.55,12.55,0,0,1-5.13,5.5s-2-2.56-.58-7.6S130.76,24,130.76,24Z"/><path class="cls-2" d="M93.44,9.11S86,1.49,83.32.29s-5.48,1.78-5.48,1.78l1.42,1.76,4.43,2.45Z"/><ellipse class="cls-7" cx="101.88" cy="31.08" rx="1.06" ry="1.49"/><ellipse class="cls-8" cx="86.7" cy="27.1" rx="1.06" ry="1.49"/><ellipse class="cls-9" cx="75.53" cy="11.56" rx="9.77" ry="6.01" transform="translate(46.44 82.22) rotate(-76.32)"/><path class="cls-6" d="M76.1,3.9S75.39,9.65,74,11.52s-2.46,6.2-2.46,6.2S69,15.22,70,9.34,76.1,3.9,76.1,3.9Z"/><path class="cls-10" d="M128.26,61.68s2.54-1.38,4.1-6.38a86.18,86.18,0,0,0,2.38-9.53s1.5-4.78,1.41-7.77a50.1,50.1,0,0,0-.53-5.79s-11.15-15.92-17-18.15l-5.89-2.23a79.92,79.92,0,0,0-10.56-3.34c-7.8-2.1-11.51-2.23-11.51-2.23s-15.11-4.1-21.4-2.94-3.34.57-6.15,1.6C61,5.68,59,4.56,57,6c-2.18,1.61-3.84,3.09-5.21,3.27a51.77,51.77,0,0,1-10.39.07c-2.76-.18-8.79-2.45-9.27,4.15-.2,2.72,1.35,8.68,6.24,8,1.41-.19,2.9-1.87,5.88-2.09S51,21.06,51,21.06s0,3.12-4.06,4.73-5.95.36-7.62,2.29c-.32.37-2.65,4.39-1.45,7.35.33.83,1.72,4.4,7.33,2.22s5.13-5.17,8.34-7.18,10.52-3.88,10.52-3.88a37.39,37.39,0,0,0-4.32,7.27c-1.86,4.61-1.29,8.2,2,9.32A5.72,5.72,0,0,0,68,40.72c1.29-2.25-.15-3.21.22-5.26a12.92,12.92,0,0,1,1.34-3.74A271.89,271.89,0,0,1,82.17,58.55C86.81,70.7,95.3,93.88,95.3,93.88l27-13.79s3-9.17,4.54-12.93S128.26,61.68,128.26,61.68Z"/><path class="cls-11" d="M91.55,41.06a142.23,142.23,0,0,1,14.36,4.53c7.63,2.88,12,6.3,15.92,6.08a23.8,23.8,0,0,0,8-2.32L99.61,104.49s-14.23-40-16.45-45.57C81.05,53.68,71.42,33.7,70.43,31.65c0,0,0-.06,0,0a23.55,23.55,0,0,0,10.13,5.68A86.85,86.85,0,0,1,91.55,41.06Z"/><path class="cls-12" d="M69.78,25.61s.86,4.79,8.06,7.15S86.92,37,89.79,38s10.72,3.45,15.81,4.93,9.88,3.46,13.7,4.57c7.23,2.1,8.2,0,10.62,0s-3.55,6-8.63,5-20-7-26.63-9.06C89.23,41.75,70,33.79,69.78,32.76S69.78,25.61,69.78,25.61Z"/><path class="cls-2" d="M115.74,19s9.45-4.86,14.93-1.21c8,5.35,5.26,14.31,5.26,14.31s-6,12.8-11.14,12-10-7-10-7"/><ellipse class="cls-5" cx="126.82" cy="29.6" rx="10.68" ry="8.59" transform="translate(64.04 143.69) rotate(-74.31)"/><path class="cls-6" d="M130.76,24s4,4.06,2,8a12.55,12.55,0,0,1-5.13,5.5s-2-2.56-.58-7.6S130.76,24,130.76,24Z"/><path class="cls-2" d="M93.44,9.11S86,1.49,83.32.29s-5.48,1.78-5.48,1.78l1.42,1.76,4.43,2.45Z"/><path class="cls-13" d="M109.79,101.86a79.33,79.33,0,0,1,12.49,2,80.14,80.14,0,0,0,8.62,2l.66,15.84s1.1,1.44-12.65,2c-1.57.07-5-1.34-5-1.34l-13.56-15.12Z"/><ellipse class="cls-7" cx="101.88" cy="31.08" rx="1.06" ry="1.49"/><ellipse class="cls-8" cx="86.7" cy="27.1" rx="1.06" ry="1.49"/><ellipse class="cls-9" cx="75.53" cy="11.56" rx="9.77" ry="6.01" transform="translate(46.44 82.22) rotate(-76.32)"/><path class="cls-6" d="M76.1,3.9S75.39,9.65,74,11.52s-2.46,6.2-2.46,6.2S69,15.22,70,9.34,76.1,3.9,76.1,3.9Z"/><path class="cls-14" d="M82,71.94s21.47-10.89,36.9-3.8,43.91,25.31,41,30.38-37.15,10.38-51.14,5.82S78.85,80.8,78.85,80.8Z"/><path class="cls-15" d="M75.72,71.68s-4.59-21.61,1.93-32.83S96.22,3.33,104.18,7.38s14.23,28.36,5.55,40.25S87.78,77,87.78,77Z"/><path class="cls-16" d="M82.93,79.51s11.69,18.43,9.47,31.35-5.14,40.16-14,39.39-23-21.07-19-35.45,10.4-35.69,10.4-35.69Z"/><path class="cls-17" d="M74.15,79.53s-30-10.88-33.89-18.48-13-19-9.65-23.54S49,28.45,62,37.51,78.85,69.4,78.85,69.4Z"/><path class="cls-18" d="M75.72,81.3s-16.65,19.41-33,24.77-40.29,6.54-42.22,0S1.76,81.62,29.39,77s46.33-2.28,46.33-2.28Z"/><ellipse class="cls-19" cx="77.23" cy="77" rx="16.19" ry="16.99"/><path class="cls-20" d="M69.23,3.14C63,4.3,65.89,3.72,63.08,4.75,61,5.51,59,4.38,57,5.86,54.79,7.47,53.13,9,51.76,9.14a52.52,52.52,0,0,1-10.39.07C38.61,9,32.58,6.75,32.1,13.35c-.2,2.72,1.35,8.69,6.24,8,1.41-.19,2.9-1.87,5.88-2.1S51,20.89,51,20.89s0,3.12-4.06,4.72S41,26,39.32,27.91c-.32.37-2.65,4.39-1.45,7.35.33.83,1.72,4.4,7.33,2.21s5.13-5.17,8.34-7.17,10.52-3.88,10.52-3.88a37,37,0,0,0-4.32,7.27c-1.86,4.6-1.29,8.2,2,9.31A5.7,5.7,0,0,0,68,40.55c1.29-2.25-.15-3.21.22-5.26a12.91,12.91,0,0,1,1.34-3.75S75.52,2,69.23,3.14Z"/><path class="cls-20" d="M100.43,86.29s-5.52-6.11-6.1-8.25-2.52-7.82-7.11-6.12-4,4.47-3.86,5.76.93,3.52,4,5.17c5.13,2.75,5.48,6.07,5.48,6.07s-11.85-3-14.71-5-11.86-9.13-15.56-3.74.27,7.27,1.52,8.38,7.24,1.23,9.63,2,7.67,3.32,7.67,3.32-1.34.87-1.34,1.9a8.7,8.7,0,0,0,.31,2.09,11.31,11.31,0,0,1-5.88,1.52c-3.75,0-9.53-.72-10.88,4.46-.49,1.87.44,6.69,4.14,7.13,4.52.55,6.6-.89,8.34-2.54s1.65-2.79,5.35-2.31,10.92,3.56,18,2.76,18.16-4.2,21.36-7.54,20.05-13.78,14.89-24.52c-2.19-4.55-3.39-3.08-3.39-4.73,0,0-4-10.25-6.17-11.21s-3.87-4-8.4-1.32-5.19,9.41-3,11.84A22.69,22.69,0,0,1,118.4,78s-4.51,3.8-6.84,6-5,8.4-5,8.4a4.69,4.69,0,0,0-3.2-1.77C101.39,90.48,100.43,86.29,100.43,86.29Z"/><path class="cls-21" d="M115.74,19s9.45-4.86,14.93-1.21c8,5.35,5.26,14.31,5.26,14.31s-6,12.8-11.14,12-10-7-10-7"/><ellipse class="cls-22" cx="126.82" cy="29.6" rx="10.68" ry="8.59" transform="translate(64.04 143.69) rotate(-74.31)"/><path class="cls-23" d="M130.76,24s4.78,1.61,3.42,7.6a7.67,7.67,0,0,1-6.54,5.93s-4.33-2.9-2.86-7.93A7.63,7.63,0,0,1,130.76,24Z"/><path class="cls-24" d="M93.44,9.11S86,1.49,83.32.29s-5.48,1.78-5.48,1.78l1.42,1.76,4.43,2.45Z"/><ellipse class="cls-25" cx="75.53" cy="11.56" rx="9.77" ry="6.01" transform="translate(46.44 82.22) rotate(-76.32)"/><path class="cls-26" d="M76.1,3.9s2.31,4,1.13,8.09a9,9,0,0,1-5.68,5.73S68,15.53,69.1,9.64,76.1,3.9,76.1,3.9Z"/></g></g></g></svg>