<svg xmlns="http://www.w3.org/2000/svg" xmlns:xlink="http://www.w3.org/1999/xlink" viewBox="0 0 561.92 150.27"><defs><style>.cls-1{isolation:isolate;}.cls-2{fill:#d95204;}.cls-3{fill:#d2691e;}.cls-4{fill:url(#linear-gradient);}.cls-5{fill:#dd8f57;}.cls-6{fill:url(#radial-gradient);}.cls-7{fill:#231f20;}.cls-24,.cls-27,.cls-7{mix-blend-mode:multiply;opacity:0.9;}.cls-8{fill:url(#linear-gradient-2);}.cls-9{fill:url(#linear-gradient-3);}.cls-10{fill:url(#radial-gradient-2);}.cls-11{fill:url(#linear-gradient-4);}.cls-12{fill:url(#linear-gradient-5);}.cls-13{fill:#6d8b66;}.cls-14{fill:url(#linear-gradient-6);}.cls-15{fill:url(#linear-gradient-9);}.cls-16{fill:url(#linear-gradient-10);}.cls-17{fill:url(#linear-gradient-11);}.cls-18{fill:url(#linear-gradient-12);}.cls-19{fill:url(#linear-gradient-13);}.cls-20{fill:url(#radial-gradient-5);}.cls-21{fill:#1b7878;}.cls-22{fill:url(#linear-gradient-14);}.cls-23{fill:url(#radial-gradient-6);}.cls-24{fill:url(#radial-gradient-7);}.cls-25{fill:url(#linear-gradient-15);}.cls-26{fill:url(#radial-gradient-8);}.cls-27{fill:url(#radial-gradient-9);}</style><linearGradient id="linear-gradient" x1="442.81" y1="99.28" x2="460.27" y2="42.92" gradientUnits="userSpaceOnUse"><stop offset="0" stop-color="#ffe4d0"/><stop offset="1" stop-color="#c50"/></linearGradient><radialGradient id="radial-gradient" cx="495.23" cy="34.01" r="15.94" gradientTransform="translate(384.34 -447.96) rotate(74.31)" gradientUnits="userSpaceOnUse"><stop offset="0" stop-color="#231f20"/><stop offset="1" stop-color="#750000"/></radialGradient><linearGradient id="linear-gradient-2" x1="462.35" y1="32.49" x2="463.18" y2="29.82" xlink:href="#linear-gradient"/><linearGradient id="linear-gradient-3" x1="447.17" y1="28.5" x2="447.99" y2="25.84" xlink:href="#linear-gradient"/><radialGradient id="radial-gradient-2" cx="433.46" cy="9.04" r="11.28" gradientTransform="translate(344.47 -415.23) rotate(76.32)" gradientUnits="userSpaceOnUse"><stop offset="0" stop-color="#231f20"/><stop offset="0.6" stop-color="#750000"/></radialGradient><linearGradient id="linear-gradient-4" x1="452.88" y1="4.45" x2="443.59" y2="32.64" gradientUnits="userSpaceOnUse"><stop offset="0" stop-color="#04bf9d"/><stop offset="1" stop-color="#026969"/></linearGradient><linearGradient id="linear-gradient-5" x1="442.81" y1="99.28" x2="460.27" y2="42.92" xlink:href="#linear-gradient-4"/><linearGradient id="linear-gradient-6" x1="492.63" y1="118.67" x2="462.84" y2="103.95" gradientUnits="userSpaceOnUse"><stop offset="0" stop-color="#40ba8d"/><stop offset="1" stop-color="#026969"/></linearGradient><linearGradient id="linear-gradient-9" x1="515.64" y1="98.72" x2="440.94" y2="75.73" gradientUnits="userSpaceOnUse"><stop offset="0" stop-color="#690202"/><stop offset="1" stop-color="#a60303"/></linearGradient><linearGradient id="linear-gradient-10" x1="467.89" y1="9.49" x2="440.94" y2="78.96" xlink:href="#linear-gradient-9"/><linearGradient id="linear-gradient-11" x1="436.91" y1="149.11" x2="436.31" y2="77.56" xlink:href="#linear-gradient-9"/><linearGradient id="linear-gradient-12" x1="396.87" y1="37.02" x2="442.52" y2="75.07" xlink:href="#linear-gradient-9"/><linearGradient id="linear-gradient-13" x1="362" y1="102.18" x2="439.2" y2="77.98" xlink:href="#linear-gradient-9"/><radialGradient id="radial-gradient-5" cx="448.78" cy="306.74" r="11.62" gradientTransform="translate(-186.92 -371.34) scale(1.39 1.46)" gradientUnits="userSpaceOnUse"><stop offset="0" stop-color="#690202"/><stop offset="0.42" stop-color="#6b0302"/><stop offset="0.58" stop-color="#720802"/><stop offset="0.7" stop-color="#7e1102"/><stop offset="0.79" stop-color="#8f1d03"/><stop offset="0.88" stop-color="#a62d03"/><stop offset="0.95" stop-color="#c14104"/><stop offset="1" stop-color="#d95204"/></radialGradient><linearGradient id="linear-gradient-14" x1="475.7" y1="30.23" x2="497.29" y2="30.23" xlink:href="#linear-gradient-4"/><radialGradient id="radial-gradient-6" cx="495.23" cy="34.01" r="17.86" gradientTransform="translate(384.34 -447.96) rotate(74.31)" gradientUnits="userSpaceOnUse"><stop offset="0" stop-color="#fff6f0"/><stop offset="1" stop-color="#0464d9"/></radialGradient><radialGradient id="radial-gradient-7" cx="488.26" cy="24.29" r="7.45" gradientUnits="userSpaceOnUse"><stop offset="0.14" stop-color="#fff6f0"/><stop offset="1" stop-color="#101126"/></radialGradient><linearGradient id="linear-gradient-15" x1="438.74" y1="4.56" x2="454.34" y2="4.56" xlink:href="#linear-gradient-4"/><radialGradient id="radial-gradient-8" cx="433.46" cy="9.04" r="11.28" gradientTransform="matrix(-0.09, 1, -1.42, -0.12, 488.22, -422.68)" gradientUnits="userSpaceOnUse"><stop offset="0.14" stop-color="#fff6f0"/><stop offset="0.85" stop-color="#0464d9"/></radialGradient><radialGradient id="radial-gradient-9" cx="441.01" cy="5.04" r="7.39" xlink:href="#radial-gradient-7"/></defs><g class="cls-1"><g id="Layer_2" data-name="Layer 2"><g id="logo"><path class="cls-2" d="M0,88.73C0,64.49,17.69,47.34,41.21,47.34c8.49,0,16.45,2.65,21.58,6.19,3,1.94,4.07,4.42,4.07,6.72,0,4.07-2.66,7.43-7.08,7.43a12.45,12.45,0,0,1-6-1.77,28.56,28.56,0,0,0-12.21-3.18C28,62.73,16.63,72.81,16.63,88.9c0,15.75,10.79,25.83,24.93,25.83,6,0,9.38-1.24,14-3.89a11.16,11.16,0,0,1,5.13-1.42c4.07,0,7.07,2.65,7.07,6.72,0,3.36-1.94,5.48-4.95,7.43A39.9,39.9,0,0,1,41,129.94C16.8,129.94,0,112.07,0,88.73Z"/><path class="cls-2" d="M69.05,44.6A10,10,0,1,1,79,54.5,9.77,9.77,0,0,1,69.05,44.6Z"/><path class="cls-2" d="M162.13,75.64v44.92a8.25,8.25,0,0,1-8,8.32,8.43,8.43,0,0,1-8.32-8.32V78.82c0-10.79-6.72-16.62-16.44-16.62-8.49,0-16.45,5.13-21.23,13.61v44.75a8.16,8.16,0,0,1-8.14,8.32,8.27,8.27,0,0,1-8.13-8.32V56.89A8.11,8.11,0,0,1,100,48.75a8,8,0,0,1,8.14,8.14v3c6.72-8,15.39-12.38,25.65-12.38C149.39,47.52,162.13,58.13,162.13,75.64Z"/><path class="cls-2" d="M281.87,106.77V92.26A199.71,199.71,0,0,0,261.35,96c-9,2.47-12.55,5.66-12.55,10.79,0,5.48,4.6,9.37,11.67,9.37C267,116.14,275.33,112.6,281.87,106.77Z"/><path class="cls-2" d="M411.31,75.11v45.45a8.14,8.14,0,1,1-16.27,0V78.11c0-11.85-6.72-15.91-14.5-15.91-7.26,0-14,4.59-18.22,12.38v46a8.14,8.14,0,1,1-16.27,0V78.11c0-11.85-6.73-15.91-14.51-15.91-7.25,0-14,4.77-18.22,12.55v45.81a8.15,8.15,0,0,1-8.13,8.32,8.28,8.28,0,0,1-8.14-8.32V57.07a8.28,8.28,0,0,1,8.14-8.32,8.15,8.15,0,0,1,8.13,8.32v2.12c6-7.61,13.45-11.85,23.17-11.85,9.56,0,18.4,4.6,22.82,13.62,6.9-9,15.39-13.62,25.82-13.62C398.93,47.34,411.31,56.54,411.31,75.11Z"/><path class="cls-2" d="M561.92,75.64v44.92a8.24,8.24,0,0,1-8,8.32,8.42,8.42,0,0,1-8.31-8.32V78.82c0-10.79-6.72-16.62-16.45-16.62-8.49,0-16.45,5.13-21.23,13.61v44.75a8.15,8.15,0,0,1-8.13,8.32,8.28,8.28,0,0,1-8.14-8.32V56.89a8.12,8.12,0,0,1,8.14-8.14A8,8,0,0,1,508,56.89v3c6.73-8,15.39-12.38,25.65-12.38C549.18,47.52,561.92,58.13,561.92,75.64Z"/><path class="cls-2" d="M265.14,62.24c-7.78.36-12.44,3-17.78,5.24-4,1.66-6.19,3.07-9.15,2.46a6.23,6.23,0,0,1-3.31-1.7c.07.35.14.72.21,1.1C232.43,55.62,221,47.52,207.4,47.52c-10.26,0-18.93,4.42-25.65,12.38v-3a8,8,0,0,0-8.13-8.14,8.11,8.11,0,0,0-8.14,8.14v63.67a8.27,8.27,0,0,0,8.14,8.32,8.16,8.16,0,0,0,8.13-8.32V75.81C186.53,67.33,194.49,62.2,203,62.2c9.72,0,16.45,5.83,16.45,16.62v41.74a8.42,8.42,0,0,0,8.31,8.32,8.25,8.25,0,0,0,8-8.32V75.64c0-1-.06-2-.14-2.92.08.88.14,1.83.14,3V97.12c3.05-4.83,8.4-8.35,15.92-10.83,8.84-3,20.53-4.05,30.26-5.3V74.45C281.78,64,274,61.84,265.14,62.24Zm-30,7.26c.14.74.26,1.6.37,2.56C235.41,71.19,235.29,70.33,235.13,69.5Z"/><path class="cls-3" d="M489.16,61.68s2.55-1.38,4.11-6.38a87.41,87.41,0,0,0,2.37-9.53s1.5-4.78,1.42-7.77a51.42,51.42,0,0,0-.54-5.79s-11.15-15.92-17-18.15l-5.89-2.23A79.92,79.92,0,0,0,463,8.49c-7.8-2.1-11.5-2.23-11.5-2.23s-15.12-4.1-21.4-2.94-3.35.57-6.16,1.6c-2.06.76-4.1-.36-6.1,1.12-2.19,1.61-3.85,3.09-5.22,3.27a51.77,51.77,0,0,1-10.39.07c-2.76-.18-8.78-2.45-9.27,4.15-.2,2.72,1.36,8.68,6.24,8,1.41-.19,2.9-1.87,5.88-2.09s6.78,1.6,6.78,1.6,0,3.12-4.06,4.73-5.94.36-7.62,2.29c-.32.37-2.65,4.39-1.45,7.35.34.83,1.72,4.4,7.34,2.22s5.12-5.17,8.33-7.18S425,26.59,425,26.59a37.39,37.39,0,0,0-4.32,7.27c-1.86,4.61-1.29,8.2,2,9.32a5.71,5.71,0,0,0,6.28-2.46c1.29-2.25-.15-3.21.23-5.26a12.74,12.74,0,0,1,1.33-3.74,271.89,271.89,0,0,1,12.58,26.83c4.64,12.15,13.14,35.33,13.14,35.33l27-13.79s3-9.17,4.55-12.93S489.16,61.68,489.16,61.68Z"/><path class="cls-4" d="M452.45,41.06a142.23,142.23,0,0,1,14.36,4.53c7.63,2.88,12.05,6.3,15.92,6.08a23.8,23.8,0,0,0,8-2.32l-30.2,55.14s-14.24-40-16.46-45.57c-2.1-5.24-11.74-25.22-12.73-27.27,0,0,0-.06.05,0a23.55,23.55,0,0,0,10.13,5.68A86.85,86.85,0,0,1,452.45,41.06Z"/><path class="cls-5" d="M430.68,25.61s.87,4.79,8.06,7.15S447.82,37,450.69,38s10.72,3.45,15.81,4.93,9.88,3.46,13.7,4.57c7.23,2.1,8.2,0,10.62,0s-3.55,6-8.63,5-20-7-26.63-9.06c-5.43-1.65-24.69-9.61-24.88-10.64S430.68,25.61,430.68,25.61Z"/><path class="cls-3" d="M476.64,19s9.46-4.86,14.93-1.21c8,5.35,5.26,14.31,5.26,14.31s-6,12.8-11.14,12-10-7-10-7"/><ellipse class="cls-6" cx="487.73" cy="29.6" rx="10.68" ry="8.59" transform="translate(327.35 491.15) rotate(-74.31)"/><path class="cls-7" d="M491.66,24s4,4.06,2,8a12.49,12.49,0,0,1-5.13,5.5s-2.05-2.56-.58-7.6S491.66,24,491.66,24Z"/><path class="cls-3" d="M454.34,9.11s-7.4-7.62-10.12-8.82-5.48,1.78-5.48,1.78l1.42,1.76,4.44,2.45Z"/><ellipse class="cls-8" cx="462.79" cy="31.08" rx="1.06" ry="1.49"/><ellipse class="cls-9" cx="447.6" cy="27.1" rx="1.06" ry="1.49"/><ellipse class="cls-10" cx="436.43" cy="11.56" rx="9.77" ry="6.01" transform="translate(322.01 432.88) rotate(-76.32)"/><path class="cls-7" d="M437,3.9s-.71,5.75-2.09,7.62-2.46,6.2-2.46,6.2-2.58-2.5-1.51-8.38S437,3.9,437,3.9Z"/><path class="cls-11" d="M489.16,61.68s2.55-1.38,4.11-6.38a87.41,87.41,0,0,0,2.37-9.53s1.5-4.78,1.42-7.77a51.42,51.42,0,0,0-.54-5.79s-11.15-15.92-17-18.15l-5.89-2.23A79.92,79.92,0,0,0,463,8.49c-7.8-2.1-11.5-2.23-11.5-2.23s-15.12-4.1-21.4-2.94-3.35.57-6.16,1.6c-2.06.76-4.1-.36-6.1,1.12-2.19,1.61-3.85,3.09-5.22,3.27a51.77,51.77,0,0,1-10.39.07c-2.76-.18-8.78-2.45-9.27,4.15-.2,2.72,1.36,8.68,6.24,8,1.41-.19,2.9-1.87,5.88-2.09s6.78,1.6,6.78,1.6,0,3.12-4.06,4.73-5.94.36-7.62,2.29c-.32.37-2.65,4.39-1.45,7.35.34.83,1.72,4.4,7.34,2.22s5.12-5.17,8.33-7.18S425,26.59,425,26.59a37.39,37.39,0,0,0-4.32,7.27c-1.86,4.61-1.29,8.2,2,9.32a5.71,5.71,0,0,0,6.28-2.46c1.29-2.25-.15-3.21.23-5.26a12.74,12.74,0,0,1,1.33-3.74,271.89,271.89,0,0,1,12.58,26.83c4.64,12.15,13.14,35.33,13.14,35.33l27-13.79s3-9.17,4.55-12.93S489.16,61.68,489.16,61.68Z"/><path class="cls-12" d="M452.45,41.06a142.23,142.23,0,0,1,14.36,4.53c7.63,2.88,12.05,6.3,15.92,6.08a23.8,23.8,0,0,0,8-2.32l-30.2,55.14s-14.24-40-16.46-45.57c-2.1-5.24-11.74-25.22-12.73-27.27,0,0,0-.06.05,0a23.55,23.55,0,0,0,10.13,5.68A86.85,86.85,0,0,1,452.45,41.06Z"/><path class="cls-13" d="M430.68,25.61s.87,4.79,8.06,7.15S447.82,37,450.69,38s10.72,3.45,15.81,4.93,9.88,3.46,13.7,4.57c7.23,2.1,8.2,0,10.62,0s-3.55,6-8.63,5-20-7-26.63-9.06c-5.43-1.65-24.69-9.61-24.88-10.64S430.68,25.61,430.68,25.61Z"/><path class="cls-3" d="M476.64,19s9.46-4.86,14.93-1.21c8,5.35,5.26,14.31,5.26,14.31s-6,12.8-11.14,12-10-7-10-7"/><ellipse class="cls-6" cx="487.73" cy="29.6" rx="10.68" ry="8.59" transform="translate(327.35 491.15) rotate(-74.31)"/><path class="cls-7" d="M491.66,24s4,4.06,2,8a12.49,12.49,0,0,1-5.13,5.5s-2.05-2.56-.58-7.6S491.66,24,491.66,24Z"/><path class="cls-3" d="M454.34,9.11s-7.4-7.62-10.12-8.82-5.48,1.78-5.48,1.78l1.42,1.76,4.44,2.45Z"/><path class="cls-14" d="M470.7,101.86a79.28,79.28,0,0,1,12.48,2,80.14,80.14,0,0,0,8.62,2l.66,15.84s1.1,1.44-12.65,2c-1.57.07-5-1.34-5-1.34l-13.56-15.12Z"/><ellipse class="cls-8" cx="462.79" cy="31.08" rx="1.06" ry="1.49"/><ellipse class="cls-9" cx="447.6" cy="27.1" rx="1.06" ry="1.49"/><ellipse class="cls-10" cx="436.43" cy="11.56" rx="9.77" ry="6.01" transform="translate(322.01 432.88) rotate(-76.32)"/><path class="cls-7" d="M437,3.9s-.71,5.75-2.09,7.62-2.46,6.2-2.46,6.2-2.58-2.5-1.51-8.38S437,3.9,437,3.9Z"/><path class="cls-15" d="M442.89,71.94s21.47-10.89,36.91-3.8,43.9,25.31,41,30.38-37.14,10.38-51.14,5.82S439.75,80.8,439.75,80.8Z"/><path class="cls-16" d="M436.62,71.68S432,50.07,438.55,38.85,457.12,3.33,465.08,7.38s14.23,28.36,5.55,40.25S448.68,77,448.68,77Z"/><path class="cls-17" d="M443.83,79.51s11.69,18.43,9.47,31.35-5.14,40.16-13.95,39.39-23-21.07-19-35.45,10.39-35.69,10.39-35.69Z"/><path class="cls-18" d="M435.05,79.53s-30-10.88-33.89-18.48-13-19-9.65-23.54,18.37-9.06,31.36,0S439.75,69.4,439.75,69.4Z"/><path class="cls-19" d="M436.62,81.3S420,100.71,403.57,106.07s-40.28,6.54-42.21,0S362.67,81.62,390.29,77s46.33-2.28,46.33-2.28Z"/><ellipse class="cls-20" cx="438.13" cy="77" rx="16.19" ry="16.99"/><path class="cls-21" d="M430.14,3.14c-6.29,1.16-3.35.58-6.16,1.61-2.06.76-4.1-.37-6.1,1.11C415.69,7.47,414,9,412.66,9.14a52.52,52.52,0,0,1-10.39.07c-2.76-.18-8.78-2.46-9.27,4.14-.2,2.72,1.36,8.69,6.24,8,1.41-.19,2.9-1.87,5.88-2.1s6.78,1.61,6.78,1.61,0,3.12-4.06,4.72-5.94.37-7.62,2.3c-.32.37-2.65,4.39-1.45,7.35.34.83,1.72,4.4,7.34,2.21s5.12-5.17,8.33-7.17S425,26.42,425,26.42a37,37,0,0,0-4.32,7.27c-1.86,4.6-1.29,8.2,2,9.31a5.69,5.69,0,0,0,6.28-2.45c1.29-2.25-.15-3.21.23-5.26a12.73,12.73,0,0,1,1.33-3.75S436.42,2,430.14,3.14Z"/><path class="cls-21" d="M461.34,86.29s-5.53-6.11-6.11-8.25-2.52-7.82-7.11-6.12-4,4.47-3.86,5.76.94,3.52,4,5.17c5.13,2.75,5.49,6.07,5.49,6.07s-11.86-3-14.72-5-11.86-9.13-15.56-3.74.27,7.27,1.52,8.38,7.25,1.23,9.63,2,7.67,3.32,7.67,3.32-1.34.87-1.34,1.9a8.7,8.7,0,0,0,.31,2.09,11.31,11.31,0,0,1-5.88,1.52c-3.75,0-9.52-.72-10.88,4.46-.49,1.87.45,6.69,4.15,7.13,4.51.55,6.59-.89,8.33-2.54s1.65-2.79,5.35-2.31,10.93,3.56,18,2.76,18.16-4.2,21.36-7.54,20.05-13.78,14.89-24.52c-2.18-4.55-3.39-3.08-3.39-4.73,0,0-4-10.25-6.17-11.21s-3.87-4-8.4-1.32-5.19,9.41-3,11.84A22.83,22.83,0,0,1,479.31,78s-4.52,3.8-6.85,6-5,8.4-5,8.4a4.66,4.66,0,0,0-3.2-1.77C462.29,90.48,461.34,86.29,461.34,86.29Z"/><path class="cls-22" d="M476.64,19s9.46-4.86,14.93-1.21c8,5.35,5.26,14.31,5.26,14.31s-6,12.8-11.14,12-10-7-10-7"/><ellipse class="cls-23" cx="487.73" cy="29.6" rx="10.68" ry="8.59" transform="translate(327.35 491.15) rotate(-74.31)"/><path class="cls-24" d="M491.66,24s4.78,1.61,3.43,7.6a7.68,7.68,0,0,1-6.55,5.93s-4.33-2.9-2.86-7.93A7.64,7.64,0,0,1,491.66,24Z"/><path class="cls-25" d="M454.34,9.11s-7.4-7.62-10.12-8.82-5.48,1.78-5.48,1.78l1.42,1.76,4.44,2.45Z"/><ellipse class="cls-26" cx="436.43" cy="11.56" rx="9.77" ry="6.01" transform="translate(322.01 432.88) rotate(-76.32)"/><path class="cls-27" d="M437,3.9s2.31,4,1.13,8.09a9,9,0,0,1-5.68,5.73s-3.52-2.19-2.45-8.08S437,3.9,437,3.9Z"/></g></g></g></svg>