<svg xmlns="http://www.w3.org/2000/svg" viewBox="0 0 58 45.58"><defs><style>.cls-1{fill:#d95204;}</style></defs><g id="Layer_2" data-name="Layer 2"><g id="icons"><path class="cls-1" d="M23.21,45.31s-8.52-2.55-13.12-2.45C2,43,0,44.62,0,44.62V3.38l1.66-.44a5.05,5.05,0,0,1,1.08-.2V37.23a51.81,51.81,0,0,1,11.15,1.86A23.62,23.62,0,0,1,23.21,45.31Z"/><path class="cls-1" d="M27.48,45.58s-4.94-5.9-10.37-7.85A77,77,0,0,0,5.42,34.78V0A32.56,32.56,0,0,1,18.08,4.12a29.07,29.07,0,0,1,9.4,8.61Z"/><path class="cls-1" d="M34.79,45.31s8.52-2.55,13.12-2.45C56,43,58,44.62,58,44.62V3.38l-1.66-.44a5.05,5.05,0,0,0-1.08-.2V37.23a51.81,51.81,0,0,0-11.15,1.86A23.62,23.62,0,0,0,34.79,45.31Z"/><path class="cls-1" d="M30.52,45.58s4.94-5.9,10.37-7.85a77,77,0,0,1,11.69-2.95V0A32.56,32.56,0,0,0,39.92,4.12a29.07,29.07,0,0,0-9.4,8.61Z"/></g></g></svg>