<?xml version="1.0" encoding="utf-8"?>
<!-- Generator: Adobe Illustrator 25.4.1, SVG Export Plug-In . SVG Version: 6.00 Build 0)  -->
<svg version="1.1" id="Layer_1" xmlns="http://www.w3.org/2000/svg" xmlns:xlink="http://www.w3.org/1999/xlink" x="0px" y="0px"
	 viewBox="0 0 58 45.6" style="enable-background:new 0 0 58 45.6;" xml:space="preserve">
<style type="text/css">
	.st0{fill:#D95204;}
	.st1{fill:#A60303;}
</style>
<path class="st0" d="M23.2,45.3c0,0-8.5-2.5-13.1-2.5C2,43,0,44.6,0,44.6V3.4l1.7-0.4C2,2.8,2.4,2.8,2.7,2.7v34.5
	c3.8,0.2,7.5,0.8,11.1,1.9C17.5,40.4,20.6,42.5,23.2,45.3z"/>
<path class="st0" d="M27.5,45.6c0,0-4.9-5.9-10.4-7.8c-3.8-1.3-7.7-2.3-11.7-3V0c4.5,0.5,8.8,1.9,12.7,4.1c3.7,2.1,6.9,5.1,9.4,8.6
	V45.6z"/>
<path class="st0" d="M34.8,45.3c0,0,8.5-2.5,13.1-2.5C56,43,58,44.6,58,44.6V3.4l-1.7-0.4c-0.4-0.1-0.7-0.2-1.1-0.2v34.5
	c-3.8,0.2-7.5,0.8-11.1,1.9C40.5,40.4,37.4,42.5,34.8,45.3z"/>
<path class="st1" d="M30.5,45.6c0,0,4.9-5.9,10.4-7.8c3.8-1.3,7.7-2.3,11.7-3V0c-4.5,0.5-8.8,1.9-12.7,4.1c-3.7,2.1-6.9,5.1-9.4,8.6
	L30.5,45.6z"/>
</svg>
