<svg xmlns="http://www.w3.org/2000/svg" viewBox="0 0 43.44 45.73"><defs><style>.cls-1{fill:#d95204;}</style></defs><g id="Layer_2" data-name="Layer 2"><g id="icons"><path class="cls-1" d="M.65,22.67a1.69,1.69,0,0,1,.48-.7L21.58,2.76c.83-.75,17.61-.25,17.61-.25.7,0,1.67.06,1.67.06A2.26,2.26,0,0,0,38.69.16S21.92-.34,21.08.41L.63,19.62a2.13,2.13,0,0,0,0,3Z"/><path class="cls-1" d="M43.06,7.65a2.26,2.26,0,0,0-2.17-2.4s-16.78-.5-17.61.25L2.83,24.7a2.13,2.13,0,0,0,0,3L17.84,45a2.12,2.12,0,0,0,3,.27L43.07,24.94C43.9,24.19,43.06,7.65,43.06,7.65Zm-6.76,8.1a3.56,3.56,0,0,1-3.46-3.65,3.46,3.46,0,1,1,6.92,0A3.56,3.56,0,0,1,36.3,15.75Z"/></g></g></svg>